# Blender 3.5.1
# www.blender.org
mtllib textured.mtl
o Cube
v -1.000000 -1.000000 1.000000
v 0.000000 1.000000 0.000000
v -1.000000 -1.000000 -1.000000
v 0.000000 1.000000 0.000000
v 1.000000 -1.000000 1.000000
v 0.000000 1.000000 0.000000
v 1.000000 -1.000000 -1.000000
v 0.000000 1.000000 0.000000
vn -0.8944 0.4472 -0.0000
vn -0.0000 0.4472 -0.8944
vn 0.8944 0.4472 -0.0000
vn -0.0000 0.4472 0.8944
vn -0.0000 -1.0000 -0.0000
vn -0.0000 1.0000 -0.0000
vt -0.006209 -0.005029
vt 0.070838 -0.001981
vt -0.005216 1.005472
vt 0.997942 -0.005029
vt 0.462178 1.721633
vt 0.875000 0.750000
vt -0.002076 1.006564
vt 0.007087 0.001969
vt -0.005216 0.003937
vt 1.002076 1.006564
vt 0.994980 0.001969
vt 0.875000 0.500000
vt 0.116812 0.002180
vt 0.783787 0.003564
vt 0.999212 1.000512
vt 0.486435 1.641019
vt 0.470304 1.719723
vt 0.625000 0.750000
vt 0.005020 1.001023
vt 0.833931 -0.001610
vt 0.999212 -0.001023
vt 0.992913 1.001023
vt 0.486337 1.647159
vt 0.625000 0.500000
s 0
usemtl Material.001
f 1/1/1 2/4/1 4/10/1 3/7/1
f 3/8/2 4/11/2 8/22/2 7/19/2
f 7/20/3 8/23/3 6/16/3 5/13/3
f 5/14/4 6/17/4 2/5/4 1/2/4
f 3/9/5 7/21/5 5/15/5 1/3/5
f 8/24/6 4/12/6 2/6/6 6/18/6
